Coordinates
version=1
nRows=38
nColumns=38
inDegrees=no

Units are S.I. units (second, meters, Newtons, ...)
If the header above contains a line with 'inDegrees', this indicates whether rotational values are in degrees (yes) or radians (no).

endheader
time	pelvis_tilt	pelvis_list	pelvis_rotation	pelvis_tx	pelvis_ty	pelvis_tz	hip_flexion_r	hip_adduction_r	hip_rotation_r	knee_angle_r	ankle_angle_r	subtalar_angle_r	mtp_angle_r	hip_flexion_l	hip_adduction_l	hip_rotation_l	knee_angle_l	ankle_angle_l	subtalar_angle_l	mtp_angle_l	lumbar_extension	lumbar_bending	lumbar_rotation	arm_flex_r	arm_add_r	arm_rot_r	elbow_flex_r	pro_sup_r	wrist_flex_r	wrist_dev_r	arm_flex_l	arm_add_l	arm_rot_l	elbow_flex_l	pro_sup_l	wrist_flex_l	wrist_dev_l
1.86	-2.06651	1.37796	-2.76287	0.667279	1.66475	0.938188	0.225912	-0.358818	0.018484	1.3918	-0.147753	0	0	0.285987	0.145681	-0.375032	0.539061	0.110056	0	0	-0.0722756	-0.205189	0.0868142	-0.0612177	-0.168	0.14294	0.623864	1.2482	0	0	-0.246744	-0.264697	0.377258	0.573343	0.757003	0	0
1.87	-2.07823	1.38076	-2.74173	0.666145	1.67499	0.940508	0.248198	-0.355241	0.0157686	1.40587	-0.135501	0	0	0.265062	0.149247	-0.365143	0.52629	0.115272	0	0	-0.0745273	-0.201592	0.0731437	-0.0704502	-0.167801	0.14442	0.623857	1.24626	0	0	-0.232556	-0.268927	0.377532	0.575025	0.765635	0	0
1.88	-2.08454	1.38468	-2.72349	0.664882	1.68526	0.94267	0.27014	-0.351938	0.00942358	1.41519	-0.125716	0	0	0.245624	0.152108	-0.353147	0.51366	0.120348	0	0	-0.0753957	-0.197344	0.0565614	-0.0804302	-0.167786	0.147706	0.625424	1.23994	0	0	-0.219744	-0.273243	0.375428	0.579199	0.771377	0	0
1.89	-2.08946	1.38841	-2.70582	0.663582	1.69545	0.944708	0.29146	-0.349821	0.0013982	1.42037	-0.116771	0	0	0.22612	0.154985	-0.340983	0.500146	0.124901	0	0	-0.0763173	-0.193499	0.0385483	-0.0906636	-0.167897	0.151715	0.628199	1.22955	0	0	-0.208142	-0.277928	0.371023	0.5867	0.774102	0	0
1.9	-2.09651	1.39116	-2.6859	0.662283	1.70554	0.946633	0.311738	-0.351604	-0.01027	1.42193	-0.108722	0	0	0.205281	0.158259	-0.329422	0.485447	0.129152	0	0	-0.0782144	-0.190595	0.0199901	-0.100773	-0.168489	0.156336	0.631064	1.21674	0	0	-0.196815	-0.282479	0.365182	0.596391	0.773369	0	0
1.91	-2.1071	1.39318	-2.66186	0.660946	1.71553	0.948531	0.329621	-0.354143	-0.0230093	1.41906	-0.100353	0	0	0.182466	0.16202	-0.316466	0.468419	0.132223	0	0	-0.0818584	-0.187938	0.00156187	-0.110818	-0.16375	0.134707	0.629912	1.26785	0	0	-0.184059	-0.286352	0.356246	0.605037	0.783746	0	0
1.92	-2.12139	1.3951	-2.63293	0.659567	1.72543	0.950329	0.345054	-0.356819	-0.0374853	1.4121	-0.0916756	0	0	0.1586	0.165062	-0.302781	0.450794	0.135307	0	0	-0.0864618	-0.184885	-0.0180514	-0.121289	-0.162962	0.132128	0.633067	1.26696	0	0	-0.170859	-0.291723	0.35168	0.61479	0.790294	0	0
1.93	-2.13989	1.3964	-2.5995	0.658212	1.73518	0.952031	0.358508	-0.361056	-0.0539363	1.40173	-0.0826329	0	0	0.133774	0.167442	-0.289715	0.433017	0.138283	0	0	-0.0924479	-0.181989	-0.0378924	-0.131213	-0.161738	0.129094	0.635774	1.26399	0	0	-0.157369	-0.297615	0.348857	0.62539	0.794315	0	0
1.94	-2.15956	1.39777	-2.56547	0.656909	1.74474	0.953576	0.371112	-0.362558	-0.0674215	1.38797	-0.0726562	0	0	0.109475	0.168776	-0.27738	0.41582	0.141087	0	0	-0.0986943	-0.178764	-0.0570625	-0.140271	-0.1605	0.126538	0.637507	1.25893	0	0	-0.14306	-0.303392	0.346698	0.635556	0.797439	0	0
1.95	-2.18002	1.39881	-2.53221	0.655664	1.75431	0.954964	0.383077	-0.363554	-0.0795685	1.37103	-0.0623029	0	0	0.0849979	0.169718	-0.265648	0.398442	0.14371	0	0	-0.104639	-0.175494	-0.0743242	-0.149289	-0.159714	0.124513	0.638449	1.25231	0	0	-0.127814	-0.308218	0.345503	0.64409	0.799371	0	0
1.96	-2.20264	1.39917	-2.49745	0.654452	1.7638	0.956213	0.393564	-0.364782	-0.0915966	1.35099	-0.0509414	0	0	0.0600459	0.170742	-0.252368	0.380847	0.146008	0	0	-0.111402	-0.172209	-0.0906249	-0.158452	-0.159545	0.124169	0.64048	1.24216	0	0	-0.112021	-0.313598	0.346714	0.653505	0.801519	0	0
1.97	-2.21997	1.40015	-2.469	0.653362	1.77313	0.957133	0.405264	-0.36563	-0.102854	1.3287	-0.0400592	0	0	0.0383195	0.170779	-0.240204	0.366525	0.149371	0	0	-0.116892	-0.168912	-0.105426	-0.167061	-0.159301	0.125037	0.640905	1.23253	0	0	-0.0954057	-0.318606	0.348675	0.66282	0.801333	0	0
1.98	-2.23111	1.40173	-2.44772	0.652435	1.78239	0.957736	0.418068	-0.366188	-0.11336	1.30411	-0.0297761	0	0	0.0197415	0.170018	-0.229537	0.355511	0.153897	0	0	-0.120786	-0.165996	-0.118963	-0.175237	-0.158889	0.127786	0.639604	1.22131	0	0	-0.0784169	-0.322974	0.349994	0.671887	0.799263	0	0
1.99	-2.2446	1.40218	-2.42521	0.651603	1.79162	0.958305	0.428713	-0.367153	-0.123626	1.27622	-0.0190837	0	0	-0.00095123	0.170324	-0.215927	0.341683	0.156946	0	0	-0.126045	-0.163543	-0.130861	-0.182661	-0.153864	0.110661	0.634239	1.2532	0	0	-0.0603454	-0.323961	0.340158	0.67667	0.837493	0	0
2	-2.25806	1.40269	-2.4054	0.651059	1.80082	0.958693	0.439287	-0.366444	-0.131898	1.24571	-0.00854956	0	0	-0.0202891	0.169818	-0.2046	0.329971	0.160794	0	0	-0.130584	-0.160948	-0.139656	-0.190044	-0.152117	0.108393	0.631271	1.24954	0	0	-0.0414338	-0.32774	0.344292	0.68155	0.846859	0	0
2.01	-2.26828	1.40329	-2.39068	0.650707	1.81003	0.958897	0.449841	-0.365049	-0.139225	1.21288	0.00216961	0	0	-0.0386946	0.169177	-0.195454	0.318703	0.16495	0	0	-0.134221	-0.158747	-0.146366	-0.196636	-0.150941	0.108235	0.626777	1.24505	0	0	-0.0226218	-0.332404	0.352811	0.685434	0.855721	0	0
2.02	-2.27457	1.40374	-2.38179	0.650576	1.81929	0.958868	0.460534	-0.363313	-0.145434	1.17823	0.0131251	0	0	-0.0564447	0.168753	-0.188563	0.307704	0.169932	0	0	-0.136914	-0.157309	-0.150982	-0.203595	-0.148846	0.106129	0.62222	1.23804	0	0	-0.00415081	-0.33609	0.35931	0.690006	0.863015	0	0
2.03	-2.27882	1.40398	-2.37556	0.650509	1.82854	0.958658	0.470454	-0.362029	-0.152332	1.14196	0.0235165	0	0	-0.0737521	0.168593	-0.1818	0.297186	0.175251	0	0	-0.139395	-0.156258	-0.154862	-0.209467	-0.147128	0.107351	0.615936	1.22811	0	0	0.0144409	-0.338343	0.36344	0.694691	0.868611	0	0
2.04	-2.28422	1.40398	-2.36726	0.650316	1.83767	0.958341	0.478192	-0.361691	-0.162145	1.1038	0.0330194	0	0	-0.0907423	0.168343	-0.173535	0.287956	0.180379	0	0	-0.14268	-0.154924	-0.159767	-0.2136	-0.146141	0.112225	0.607675	1.21683	0	0	0.0332121	-0.339449	0.366771	0.699326	0.872753	0	0
2.05	-2.28839	1.40394	-2.36083	0.650178	1.84681	0.957878	0.484828	-0.361268	-0.173051	1.0637	0.0415672	0	0	-0.107411	0.16815	-0.165924	0.279035	0.18566	0	0	-0.14556	-0.153669	-0.164282	-0.21649	-0.145504	0.119076	0.597715	1.20537	0	0	0.0512188	-0.3404	0.370255	0.703639	0.877043	0	0
2.06	-2.29108	1.40417	-2.35747	0.650244	1.85606	0.95724	0.491019	-0.359856	-0.183891	1.02196	0.0493907	0	0	-0.123803	0.167836	-0.159979	0.269947	0.191281	0	0	-0.147613	-0.152422	-0.167168	-0.218454	-0.145348	0.12943	0.585764	1.19435	0	0	0.0678185	-0.340982	0.372244	0.708607	0.880506	0	0
2.07	-2.29959	1.40652	-2.34988	0.650327	1.86526	0.956669	0.496586	-0.355254	-0.195748	0.977515	0.0546112	0	0	-0.138727	0.165242	-0.156314	0.261705	0.197102	0	0	-0.148432	-0.151551	-0.17603	-0.213372	-0.146015	0.150799	0.566554	1.18503	0	0	0.0768337	-0.342877	0.365866	0.717535	0.88145	0	0
2.08	-2.2946	1.40484	-2.35568	0.650739	1.87485	0.955523	0.501645	-0.356397	-0.20888	0.936308	0.0632547	0	0	-0.157609	0.167439	-0.15082	0.249441	0.202388	0	0	-0.151016	-0.149111	-0.167012	-0.224404	-0.138067	0.117836	0.56051	1.21292	0	0	0.10279	-0.334826	0.364687	0.705883	0.946637	0	0
2.09	-2.29428	1.4057	-2.35698	0.651044	1.88431	0.954441	0.505721	-0.35424	-0.22389	0.892139	0.0704468	0	0	-0.173642	0.166847	-0.147523	0.239675	0.208295	0	0	-0.151794	-0.14733	-0.168378	-0.224672	-0.136404	0.124436	0.545541	1.20511	0	0	0.117139	-0.33246	0.362234	0.709034	0.956324	0	0
2.1	-2.29066	1.40712	-2.36167	0.651419	1.89388	0.953185	0.509906	-0.352206	-0.240935	0.848314	0.0778391	0	0	-0.188582	0.165975	-0.145378	0.230607	0.214436	0	0	-0.151541	-0.145615	-0.169714	-0.22324	-0.135151	0.133391	0.527605	1.19945	0	0	0.130122	-0.329955	0.359637	0.712239	0.964795	0	0
2.11	-2.28267	1.40906	-2.37116	0.651871	1.90359	0.951706	0.514338	-0.349786	-0.258784	0.804938	0.0859575	0	0	-0.202382	0.165126	-0.144726	0.222169	0.220929	0	0	-0.149872	-0.143887	-0.170033	-0.22215	-0.133641	0.141516	0.509913	1.19264	0	0	0.142204	-0.326852	0.357152	0.71519	0.972741	0	0
2.12	-2.27532	1.41124	-2.37969	0.65232	1.91341	0.950069	0.518109	-0.34728	-0.278925	0.762537	0.0947657	0	0	-0.216129	0.163783	-0.143971	0.214013	0.227876	0	0	-0.147974	-0.141348	-0.170875	-0.223519	-0.131855	0.145555	0.49796	1.1815	0	0	0.152683	-0.323231	0.352899	0.718946	0.981041	0	0
2.13	-2.26312	1.41433	-2.39297	0.652918	1.92324	0.948281	0.522596	-0.343834	-0.299794	0.720716	0.103553	0	0	-0.227754	0.161922	-0.143732	0.207453	0.235336	0	0	-0.144849	-0.138969	-0.171983	-0.221126	-0.129973	0.156461	0.478865	1.17	0	0	0.16178	-0.319853	0.348958	0.72374	0.984734	0	0
2.14	-2.24591	1.41826	-2.41097	0.653613	1.93309	0.946331	0.527336	-0.33941	-0.321007	0.679128	0.111787	0	0	-0.237266	0.159645	-0.144069	0.202657	0.243271	0	0	-0.140542	-0.136477	-0.173717	-0.218585	-0.128474	0.166576	0.460902	1.16213	0	0	0.169223	-0.316876	0.345732	0.72982	0.984202	0	0
2.15	-2.20644	1.42155	-2.45163	0.654312	1.94306	0.943923	0.54764	-0.349822	-0.357598	0.667567	0.120788	0	0	-0.243919	0.160309	-0.144327	0.199229	0.251372	0	0	-0.133579	-0.136703	-0.175389	-0.218515	-0.12678	0.174665	0.448478	1.15047	0	0	0.174525	-0.314975	0.344196	0.738125	0.980329	0	0
2.16	-2.20134	1.42739	-2.45822	0.655273	1.95295	0.942013	0.548965	-0.337903	-0.373253	0.623453	0.12681	0	0	-0.251373	0.154338	-0.147936	0.19886	0.260868	0	0	-0.130617	-0.130512	-0.176605	-0.212183	-0.115642	0.127667	0.420301	1.23046	0	0	0.179807	-0.307205	0.32649	0.740925	1.01635	0	0
2.17	-2.2053	1.4343	-2.45464	0.656334	1.96294	0.940214	0.53556	-0.312199	-0.372732	0.550458	0.128939	0	0	-0.258068	0.145937	-0.150753	0.200952	0.270446	0	0	-0.127762	-0.122804	-0.180093	-0.208817	-0.112587	0.123769	0.405808	1.23392	0	0	0.183355	-0.302465	0.31746	0.746458	1.02267	0	0
2.18	-2.18861	1.44026	-2.47248	0.657436	1.97304	0.938058	0.537466	-0.300241	-0.383645	0.507559	0.130625	0	0	-0.262598	0.140608	-0.152743	0.204231	0.279541	0	0	-0.122999	-0.117784	-0.182695	-0.208115	-0.110276	0.118167	0.397874	1.2366	0	0	0.185638	-0.298825	0.311047	0.753348	1.02687	0	0
2.19	-2.1636	1.44552	-2.49824	0.658575	1.98325	0.935798	0.540619	-0.289618	-0.39158	0.469529	0.136739	0	0	-0.266536	0.13639	-0.153071	0.208326	0.287758	0	0	-0.117977	-0.113783	-0.18579	-0.209958	-0.107868	0.110914	0.396224	1.23701	0	0	0.187043	-0.296083	0.307356	0.760808	1.0297	0	0
2.2	-2.14434	1.45158	-2.51965	0.659931	1.99343	0.933601	0.553865	-0.283814	-0.402485	0.455627	0.142601	0	0	-0.268531	0.130303	-0.158526	0.216846	0.297992	0	0	-0.113608	-0.108538	-0.187621	-0.207522	-0.104535	0.101564	0.387277	1.23937	0	0	0.187839	-0.292432	0.300847	0.767552	1.04	0	0
2.21	-2.143	1.45747	-2.51933	0.661332	2.00412	0.93172	0.538606	-0.260405	-0.39055	0.392028	0.144681	0	0	-0.273711	0.121521	-0.15955	0.224301	0.305721	0	0	-0.110709	-0.102471	-0.192768	-0.205814	-0.1024	0.101706	0.379585	1.23853	0	0	0.187815	-0.290482	0.299591	0.773435	1.04344	0	0
2.22	-2.12437	1.46147	-2.5382	0.662688	2.0148	0.929641	0.552975	-0.259059	-0.39825	0.396345	0.165885	0	0	-0.276526	0.115704	-0.163968	0.235637	0.314352	0	0	-0.107556	-0.0988371	-0.195816	-0.204351	-0.10102	0.106474	0.374188	1.22078	0	0	0.187319	-0.288126	0.29823	0.77942	1.05221	0	0
2.23	-2.13672	1.46411	-2.52205	0.664026	2.0261	0.928005	0.539686	-0.244322	-0.387584	0.357949	0.174795	0	0	-0.284711	0.107427	-0.163845	0.245108	0.319903	0	0	-0.107675	-0.0944127	-0.20233	-0.205099	-0.0988713	0.106606	0.372486	1.21386	0	0	0.185527	-0.286614	0.298693	0.785386	1.05467	0	0
